<svg xmlns="http://www.w3.org/2000/svg" version="1.1" xmlns:xlink="http://www.w3.org/1999/xlink" xmlns:svgjs="http://svgjs.dev/svgjs" width="1500" height="1682" viewBox="0 0 1500 1682"><g transform="matrix(1,0,0,1,-2.336338785046678,0)"><svg viewBox="0 0 321 360" data-background-color="#ffffff" preserveAspectRatio="xMidYMid meet" height="1682" width="1500" xmlns="http://www.w3.org/2000/svg" xmlns:xlink="http://www.w3.org/1999/xlink"><g id="tight-bounds" transform="matrix(1,0,0,1,0.5000234999999975,0)"><svg viewBox="0 0 320 360" height="360" width="320"><g><svg></svg></g><g><svg viewBox="0 0 320 360" height="360" width="320"><g><path transform="translate(-74.99272,-51.79039) scale(4.65793,4.65793)" d="M20.6 59.9l0.8 1-0.4-1.3c-0.1-0.6-0.8 0.1-0.4 0.3M21.5 59.3c0.3 0.5 0.6 1 0.6 1.5 0 0.7 0.6 1 1.1 1.2-0.7-0.8-1.1-3-1.7-2.7M59.9 16.9c1.7 0 3.3-0.2 5.1 0.2 4.4 1.1 8.1 3.3 10.6 6.4l7 11.2c0.3 2.8 0.9 5.9 0.8 9.3 0.7 0 0.6-1 1.4-1.2-0.8 2-1.2 4.5-1.4 7.4-0.5-1.6 0-4 0.1-5.3-0.7 1.1-1.1 0.3-1.1-0.2 0.1-0.8-0.3-0.7-0.6-1-1.1-1-1.8-2.1-2.6-3.8 0.5-1.3 0.6-3.2-1-4.2-0.5-0.3-1.1-0.8-1.4-1.6-0.4-1.1-1.1-2.4-0.9-4.1 0.1-0.5-1.5 1.1-2.4 0.4-3.9-2.7-7.8-5.8-12.5-8.4-2.5 0-4.3-0.9-5.2-2-0.8-1-0.2-2.3 1-2.4 0.7 0 1.5-0.2 2.1 0.2 0.1-0.4 0.5-0.9 1-0.9M50 14.6l0.2 0.1c1 0.2 1.5 1.6 2.6 1.1 0 0.7 0.1 1.4-0.1 1.9-0.3 0.8-1.2 0.8-1.9 0.8-6.7-0.4-10.6 2.4-14.7 4.8-1.1 0.7-2.3 1.2-3.2 2.1-4.3 4-9 7.7-10.1 15.1l-0.9 8.2c-0.1 0.9-1.1 1.8-0.9 2.9l0.7 4.9c-0.7-0.7-1.1 0.2-0.9 0.6 0.1 0.3 0.5 1.3 1.1 0.4 0.8 1.5 1.6 4.4 2.7 5.7 3.4 4 7.8 7.6 11.4 11.2 0.9-0.2 1.6-0.2 1.8-0.8 0.3 0.6-0.3 1.2-0.8 1.3 1.6 1 3.4 1.9 5.8 2.1 3.1 0.2 6 0.7 8.7 1.4 1.4-0.4 2.8-0.6 4.3-0.7 0.5 0 0.8-0.8 1.4-1l0.1-1c0.6 0.9 0.5-0.3 0.1-0.9 0.7 0.6 0.9 1.1 1.2 1.5 0-0.3 0.8-1.4 0.8-0.1l0.2-1.3c0.3-0.2 0.4 1.1 0.7 0.2 0.3-0.9 0.9-0.2 1.5-0.5-0.2 0.4-0.1 1.2 0.6 0.7l0.8-0.7c0.5 1.2 1.3 0.7 1.7 0.5 4.4-2.8 8.8-6.1 13-9.4l-0.1 1.3 0.5-1.6c0.5 0.5 0.9 0.1 1.1-0.2 0.6-1 1.4-2 2.7-2.9-1.6 4.3-3.5 7.7-5.9 10.5l-1 1.2c0 0.7-0.2 1.6-1 1.7-0.4 0.1-1.2-0.2-1.8 0.4-0.3 0.4 0.7 1.2-0.1 0.6-0.7-0.5-1.4 0-2.2 0.2-0.6 0.2 0.4 0.8 0.6 1.2 0.2 0.4 0.4 0.8 0.3 1.3l-1.1-1.2c-1.3 0.7-2.1 2-3.2 3-0.5 0.4-0.3 1.1-0.3 1.7-0.7 0-1.5-0.2-1.9 0.2-0.3 0.4-0.2 1-0.2 1.6-1-0.1-1.1-1.6-2-1.3-0.9 0.2-1.9 0.3-2.7 0.8 0.6 1.2-1 0.5-0.8 0.7-1.5-0.9-2.8-1.6-4.4-1-3.4-1.1-7.6-0.6-10.7-0.2 0-0.5 0.1-1-0.1-1.1-0.2 0.5-0.8 0.3-0.7 0.3-1.9-1.3-3.8-2.1-5.8-3.2-1.8 0.2-3.5-0.7-4-1.2-1.4-1.3-3-0.6-4.3-0.9-2.8-0.7-3.8-3.6-4.1-5.6-0.2-1-1-1.4-1.3-1.3-1.3-4.2-3.3-8-4.9-11.9-0.4-1-0.3-2-0.3-3.1 0.5 0.2 1 0.1 0.9-0.6-0.5-3.3-1.7-5.8-3-8.2 0.7-3.4 0.8-7.4 2.4-10.4 1.4-2.7 4-4.1 5.8-6.4 0.6-0.8 0.6-1.9 1.2-2.6 2-2 4-4.1 6.2-5.9 1-0.8 2.2 0 3.7-0.3 0.5-1.8 2.5-3.4 4.4-2.9 0.8 0.2 2.4-1.9 2.9-2.1 0.8-0.3 0.4 0.8 0.4 1.5 1.9-1.5 4.5-2.3 6.9-3.2" fill="#1d597d" fill-rule="nonzero" stroke="none" stroke-width="1" stroke-linecap="butt" stroke-linejoin="miter" stroke-miterlimit="10" stroke-dasharray="" stroke-dashoffset="0" font-family="none" font-weight="none" font-size="none" text-anchor="none" style="mix-blend-mode: normal" data-fill-palette-color="tertiary"></path></g><g transform="matrix(1,0,0,1,64,93.91909311742212)"><svg viewBox="0 0 192 172.16181376515576" height="172.16181376515576" width="192"><g><svg viewBox="0 0 192 172.16181376515576" height="172.16181376515576" width="192"><g transform="matrix(1,0,0,1,0,112.72464662146243)"><svg viewBox="0 0 192 59.43716714369332" height="59.43716714369332" width="192"><g id="textblocktransform"><svg viewBox="0 0 192 59.43716714369332" height="59.43716714369332" width="192" id="textblock"><g><svg viewBox="0 0 192 35.07586470475826" height="35.07586470475826" width="192"><g transform="matrix(1,0,0,1,0,0)"><svg width="192" viewBox="-0.3 -34 261.62 47.800000000000004" height="35.07586470475826" data-palette-color="#1d597d"><path d="M12 0.8L12 0.8Q10.3 0.8 9.38-0.33 8.45-1.45 8.3-4.25L8.3-4.25Q8.2-7.2 7.83-10.13 7.45-13.05 6.8-15.6L6.8-15.6Q5.95-19.3 4.53-22.43 3.1-25.55 0.6-27.55L0.6-27.55Q0.2-27.9-0.05-28.23-0.3-28.55-0.3-29.05L-0.3-29.05Q-0.3-30.15 0.83-31.15 1.95-32.15 3.45-32.15L3.45-32.15Q5.2-32.15 6.45-30.7 7.7-29.25 8.7-26.65L8.7-26.65Q10.4-22.55 11.18-17.48 11.95-12.4 12.05-7.7L12.05-7.7Q12.1-6.3 12.45-5.83 12.8-5.35 13.65-5.35L13.65-5.35Q15.45-5.35 17.18-6.75 18.9-8.15 20.33-10.55 21.75-12.95 22.6-16 23.45-19.05 23.45-22.4L23.45-22.4Q23.45-24.45 23.18-25.73 22.9-27 22.55-27.75L22.55-27.75Q22.1-28.75 22.1-29.35L22.1-29.35Q22.1-30.1 22.8-30.75 23.5-31.4 24.43-31.83 25.35-32.25 26.1-32.25L26.1-32.25Q27.1-32.25 27.55-31.53 28-30.8 28.15-29.7 28.3-28.6 28.3-27.45L28.3-27.45Q28.3-24 27.5-20.15 26.7-16.3 25.23-12.58 23.75-8.85 21.73-5.83 19.7-2.8 17.25-1 14.8 0.8 12 0.8ZM37.5 0.65L37.5 0.65Q33.7 0.65 31.57-1.53 29.45-3.7 29.45-7.6L29.45-7.6Q29.45-11.15 31-14.05 32.55-16.95 35.17-18.68 37.8-20.4 40.95-20.4L40.95-20.4Q43.95-20.4 45.75-18.93 47.55-17.45 47.55-15L47.55-15Q47.55-13.05 46.35-11.4 45.15-9.75 43.15-8.78 41.15-7.8 38.7-7.8L38.7-7.8Q35.7-7.8 33.8-9.15L33.8-9.15Q33.85-6.85 35.37-5.45 36.9-4.05 39.3-4.05L39.3-4.05Q40.75-4.05 42.27-4.58 43.8-5.1 44.9-6L44.9-6Q45.6-6.6 46.2-6.6L46.2-6.6Q46.7-6.6 47.02-6.28 47.35-5.95 47.35-5.45L47.35-5.45Q47.35-4.35 45.45-2.55L45.45-2.55Q42.1 0.65 37.5 0.65ZM38.25-11.1L38.25-11.1Q40.05-11.1 41.25-11.85 42.45-12.6 42.45-13.75L42.45-13.75Q42.45-14.7 41.65-15.23 40.85-15.75 39.45-15.75L39.45-15.75Q37.6-15.75 36.22-14.78 34.85-13.8 34.25-12.05L34.25-12.05Q34.95-11.6 36.05-11.35 37.15-11.1 38.25-11.1ZM39.25-22.8L39.25-22.8Q38.1-22.8 38.1-23.9L38.1-23.9Q38.1-24.5 38.4-25L38.4-25Q39.45-26.65 40.57-28.25 41.7-29.85 42.9-31.05L42.9-31.05Q44.05-32.2 45.2-32.2L45.2-32.2Q46-32.2 46.87-31.45 47.75-30.7 47.75-29.65L47.75-29.65Q47.75-29.2 47.5-28.63 47.25-28.05 46.7-27.55L46.7-27.55Q45.45-26.3 43.72-25.2 42-24.1 40.2-23.1L40.2-23.1Q39.7-22.8 39.25-22.8ZM54.4 0.55L54.4 0.55Q53.6 0.55 53.12 0.28 52.65 0 52.8-0.65L52.8-0.65Q53.35-2.8 53.72-5.03 54.1-7.25 54.1-9.3L54.1-9.3Q54.1-11.95 53.77-13.18 53.45-14.4 52.9-14.88 52.35-15.35 51.55-15.6L51.55-15.6Q51.2-15.75 50.92-16 50.65-16.25 50.65-16.7L50.65-16.7Q50.65-17.4 51.2-18.25 51.75-19.1 52.75-19.73 53.75-20.35 55.05-20.35L55.05-20.35Q56.75-20.35 57.42-19.18 58.1-18 58.1-16.1L58.1-16.1Q59-18.1 60.32-19.28 61.65-20.45 63.65-20.45L63.65-20.45Q65-20.45 65.9-19.85 66.8-19.25 66.8-17.9L66.8-17.9Q66.8-16.55 65.92-15.38 65.05-14.2 64.15-14.2L64.15-14.2Q64-14.2 63.8-14.25 63.6-14.3 63.45-14.5L63.45-14.5Q62.8-15.3 61.85-15.3L61.85-15.3Q60.4-15.3 59.3-13.4 58.2-11.5 58.1-8.15L58.1-8.15Q58.15-6.9 58.17-5.6 58.2-4.3 58.2-3.7L58.2-3.7Q58.2-1.85 57.17-0.65 56.15 0.55 54.4 0.55ZM73.04-24.85L73.04-24.85Q71.64-24.9 70.79-25.7 69.94-26.5 69.94-27.95L69.94-27.95Q69.99-29.5 70.99-30.48 71.99-31.45 73.54-31.4L73.54-31.4Q74.99-31.35 75.82-30.55 76.64-29.75 76.59-28.3L76.59-28.3Q76.54-26.8 75.59-25.83 74.64-24.85 73.04-24.85ZM73.09 0.5L73.09 0.5Q71.59 0.5 70.74-0.33 69.89-1.15 69.89-3.15L69.89-3.15Q69.89-4.3 70.12-5.4 70.34-6.5 70.64-7.55L70.64-7.55Q70.99-8.65 71.22-9.8 71.44-10.95 71.44-12.25L71.44-12.25Q71.44-13.15 71.19-13.98 70.94-14.8 70.09-15.2L70.09-15.2Q69.44-15.55 68.97-15.93 68.49-16.3 68.49-16.9L68.49-16.9Q68.49-17.6 69.14-18.4 69.79-19.2 70.87-19.78 71.94-20.35 73.09-20.35L73.09-20.35Q74.34-20.35 74.92-19.7 75.49-19.05 75.69-18.05 75.89-17.05 75.89-16L75.89-16Q75.89-14.4 75.64-12.88 75.39-11.35 75.14-10.05L75.14-10.05Q74.94-9.1 74.84-8.3 74.74-7.5 74.74-6.8L74.74-6.8Q74.74-5.55 75.34-4.93 75.94-4.3 77.04-3.75L77.04-3.75Q77.49-3.5 77.49-3L77.49-3Q77.49-2.6 77.09-1.75 76.69-0.9 75.72-0.2 74.74 0.5 73.09 0.5ZM88.54 0.65L88.54 0.65Q85.49 0.65 84.17-1.38 82.84-3.4 82.84-6.6L82.84-6.6Q82.84-7.75 82.97-8.85 83.09-9.95 83.24-11.05L83.24-11.05Q83.39-12.15 83.54-13.2 83.69-14.25 83.79-15.2L83.79-15.2Q82.74-14.9 81.69-14.9L81.69-14.9Q80.59-14.9 80.59-15.8L80.59-15.8Q80.59-16.75 81.44-18.13 82.29-19.5 83.57-20.85 84.84-22.2 86.12-23.13 87.39-24.05 88.29-24.05L88.29-24.05Q89.39-24.05 89.39-22.15L89.39-22.15Q89.39-21.65 89.32-21.13 89.24-20.6 89.14-20.05L89.14-20.05Q90.09-20.25 91.07-20.4 92.04-20.55 92.94-20.55L92.94-20.55Q94.09-20.55 94.72-20.15 95.34-19.75 95.34-18.6L95.34-18.6Q95.34-17.4 94.77-16.2 94.19-15 93.49-15L93.49-15Q93.34-15 92.99-15.05 92.64-15.1 92.14-15.2L92.14-15.2Q91.49-15.35 90.49-15.5 89.49-15.65 88.09-15.65L88.09-15.65Q87.74-14.1 87.47-12.48 87.19-10.85 87.19-9.55L87.19-9.55Q87.19-6.65 88.64-5.6 90.09-4.55 92.84-4.55L92.84-4.55Q93.69-4.55 94.04-4.28 94.39-4 94.39-3.3L94.39-3.3Q94.39-1.65 92.69-0.5 90.99 0.65 88.54 0.65ZM105.44 0.65L105.44 0.65Q101.64 0.65 99.51-1.53 97.39-3.7 97.39-7.6L97.39-7.6Q97.39-11.15 98.94-14.05 100.49-16.95 103.11-18.68 105.74-20.4 108.89-20.4L108.89-20.4Q111.89-20.4 113.69-18.93 115.49-17.45 115.49-15L115.49-15Q115.49-13.05 114.29-11.4 113.09-9.75 111.09-8.78 109.09-7.8 106.64-7.8L106.64-7.8Q103.64-7.8 101.74-9.15L101.74-9.15Q101.79-6.85 103.31-5.45 104.84-4.05 107.24-4.05L107.24-4.05Q108.69-4.05 110.21-4.58 111.74-5.1 112.84-6L112.84-6Q113.54-6.6 114.14-6.6L114.14-6.6Q114.64-6.6 114.96-6.28 115.29-5.95 115.29-5.45L115.29-5.45Q115.29-4.35 113.39-2.55L113.39-2.55Q110.04 0.65 105.44 0.65ZM106.19-11.1L106.19-11.1Q107.99-11.1 109.19-11.85 110.39-12.6 110.39-13.75L110.39-13.75Q110.39-14.7 109.59-15.23 108.79-15.75 107.39-15.75L107.39-15.75Q105.54-15.75 104.16-14.78 102.79-13.8 102.19-12.05L102.19-12.05Q102.89-11.6 103.99-11.35 105.09-11.1 106.19-11.1ZM107.19-22.8L107.19-22.8Q106.04-22.8 106.04-23.9L106.04-23.9Q106.04-24.5 106.34-25L106.34-25Q107.39-26.65 108.51-28.25 109.64-29.85 110.84-31.05L110.84-31.05Q111.99-32.2 113.14-32.2L113.14-32.2Q113.94-32.2 114.81-31.45 115.69-30.7 115.69-29.65L115.69-29.65Q115.69-29.2 115.44-28.63 115.19-28.05 114.64-27.55L114.64-27.55Q113.39-26.3 111.66-25.2 109.94-24.1 108.14-23.1L108.14-23.1Q107.64-22.8 107.19-22.8ZM136.53 0.5L136.53 0.5Q135.93 0.5 135.31 0.3 134.68 0.1 134.28-0.65 133.88-1.4 133.88-2.95L133.88-2.95Q133.88-3.95 134.06-5.53 134.23-7.1 134.43-8.6L134.43-8.6Q134.83-11.1 135.16-14.1 135.48-17.1 135.48-20.05L135.48-20.05Q135.48-21.1 135.43-22.25 135.38-23.4 135.23-24.45L135.23-24.45Q134.93-24.3 134.56-24.18 134.18-24.05 133.93-24.05L133.93-24.05Q133.43-24.05 133.26-24.58 133.08-25.1 133.08-25.8L133.08-25.8Q133.08-27.4 133.86-28.38 134.63-29.35 136.18-30.15L136.18-30.15Q138.23-31.3 140.56-31.83 142.88-32.35 144.98-32.35L144.98-32.35Q148.08-32.35 150.48-31.25 152.88-30.15 154.23-28.15 155.58-26.15 155.58-23.35L155.58-23.35Q155.58-20.45 154.21-18.2 152.83-15.95 150.71-14.53 148.58-13.1 146.38-12.65L146.38-12.65Q147.18-11.4 148.11-10.15 149.03-8.9 149.98-7.9L149.98-7.9Q152.83-4.95 155.78-4.95L155.78-4.95Q156.58-4.95 157.18-5.05L157.18-5.05Q157.48-5.1 157.71-4.83 157.93-4.55 157.93-3.75L157.93-3.75Q157.93-2.8 157.53-1.83 157.13-0.85 156.18-0.2 155.23 0.45 153.58 0.45L153.58 0.45Q151.63 0.45 149.86-0.85 148.08-2.15 146.58-4.17 145.08-6.2 143.91-8.45 142.73-10.7 141.93-12.6L141.93-12.6Q141.73-13.15 141.58-13.68 141.43-14.2 141.43-14.7L141.43-14.7Q141.43-15.55 141.98-16.1L141.98-16.1Q142.38-16.5 143.11-16.65 143.83-16.8 145.23-16.8L145.23-16.8Q147.88-16.8 149.53-18.25 151.18-19.7 151.18-22L151.18-22Q151.18-24.5 149.31-25.65 147.43-26.8 144.73-26.8L144.73-26.8Q142.53-26.8 140.13-26.1L140.13-26.1Q139.98-22.85 139.43-18.65L139.43-18.65Q139.13-16.15 138.91-13.7 138.68-11.25 138.68-9.25L138.68-9.25Q138.68-7.5 139.01-6.18 139.33-4.85 140.33-3.9L140.33-3.9Q141.03-3.2 141.03-2.4L141.03-2.4Q141.03-1.3 139.78-0.4 138.53 0.5 136.53 0.5ZM168.03 0.65L168.03 0.65Q164.58 0.65 162.51-1.23 160.43-3.1 160.43-6.75L160.43-6.75Q160.43-8.45 160.91-10.05 161.38-11.65 162.18-13.05L162.18-13.05Q161.38-12.55 160.98-12.55L160.98-12.55Q160.38-12.55 160.16-13.23 159.93-13.9 159.93-14.55L159.93-14.55Q159.93-15.7 160.41-16.38 160.88-17.05 161.33-17.4L161.33-17.4Q162.38-18.3 164.63-19.38 166.88-20.45 170.03-20.45L170.03-20.45Q174.33-20.45 176.71-18.05 179.08-15.65 179.08-11.35L179.08-11.35Q179.08-8 177.68-5.28 176.28-2.55 173.81-0.95 171.33 0.65 168.03 0.65ZM169.58-4.45L169.58-4.45Q172.08-4.45 173.81-6.03 175.53-7.6 175.53-10.2L175.53-10.2Q175.53-12.9 173.78-14.05 172.03-15.2 169.73-15.2L169.73-15.2Q168.68-15.2 167.83-15 166.98-14.8 166.23-14.5L166.23-14.5Q165.53-13.5 164.98-12.25 164.43-11 164.43-9.5L164.43-9.5Q164.43-7 165.93-5.73 167.43-4.45 169.58-4.45ZM184.33 13.8L184.33 13.8Q182.28 13.8 180.8 12.7 179.33 11.6 179.33 9.75L179.33 9.75Q179.33 8.3 180.2 7.28 181.08 6.25 182.38 6.25L182.38 6.25Q182.98 6.25 183.23 6.45 183.48 6.65 183.63 6.9L183.63 6.9Q184.03 7.55 184.55 8.03 185.08 8.5 185.98 8.5L185.98 8.5Q187.18 8.5 188.3 7.65 189.43 6.8 190.38 5.7L190.38 5.7Q191.23 4.75 192.43 2.98 193.63 1.2 194.83-1.05L194.83-1.05Q193.73-0.1 192.78 0.33 191.83 0.75 190.98 0.75L190.98 0.75Q189.93 0.75 188.93-0.03 187.93-0.8 187.68-2.95L187.68-2.95Q187.53-4.6 187.1-6.6 186.68-8.6 186.05-10.48 185.43-12.35 184.53-13.65L184.53-13.65Q184.18-14.25 183.73-14.55 183.28-14.85 182.43-14.95L182.43-14.95Q181.83-15 181.65-15.3 181.48-15.6 181.48-16.25L181.48-16.25Q181.48-18.05 182.48-19.15 183.48-20.25 185.18-20.25L185.18-20.25Q187.23-20.25 188.13-18.68 189.03-17.1 189.68-14.85L189.68-14.85Q189.93-13.95 190.2-12.48 190.48-11 190.7-9.3 190.93-7.6 191.03-6.05L191.03-6.05Q191.08-4.95 192.28-4.95L192.28-4.95Q193.88-4.95 195.33-5.95 196.78-6.95 197.7-8.55 198.63-10.15 198.63-11.9L198.63-11.9Q198.63-12.9 198.38-13.7 198.13-14.5 197.53-15.1L197.53-15.1Q197.03-15.7 196.73-16.07 196.43-16.45 196.43-16.95L196.43-16.95Q196.43-17.8 197.23-18.55 198.03-19.3 199.15-19.8 200.28-20.3 201.13-20.3L201.13-20.3Q202.63-20.3 203.13-18.88 203.63-17.45 203.38-15.75L203.38-15.75Q203.08-13.4 202.18-10.2 201.28-7 199.85-3.5 198.43 0 196.6 3.28 194.78 6.55 192.73 9L192.73 9Q190.98 11.15 188.83 12.48 186.68 13.8 184.33 13.8ZM213.03 0.65L213.03 0.65Q210.03 0.65 208.2-1.23 206.38-3.1 206.38-6.6L206.38-6.6Q206.38-9.1 207.35-11.58 208.33-14.05 210.18-16.05 212.03-18.05 214.63-19.25 217.23-20.45 220.48-20.45L220.48-20.45Q223.48-20.45 225.6-19.43 227.73-18.4 227.73-16.65L227.73-16.65Q227.73-16.2 227.63-15.48 227.53-14.75 227.38-14.3L227.38-14.3Q227.23-13.9 226.95-13.58 226.68-13.25 226.23-13.25L226.23-13.25Q226.03-13.25 225.48-13.4L225.48-13.4Q225.28-12.35 225.18-11.35 225.08-10.35 225.08-9.35L225.08-9.35Q225.08-7.45 225.65-5.98 226.23-4.5 227.93-4.15L227.93-4.15Q228.38-4.05 228.65-3.85 228.93-3.65 228.93-3L228.93-3Q228.93-2.45 228.65-1.6 228.38-0.75 227.6-0.08 226.83 0.6 225.38 0.6L225.38 0.6Q223.43 0.6 222.38-0.83 221.33-2.25 221.33-4.9L221.33-4.9Q219.98-2.45 217.9-0.9 215.83 0.65 213.03 0.65ZM214.63-4.55L214.63-4.55Q216.63-4.55 218.15-5.8 219.68-7.05 220.53-8.95L220.53-8.95Q221.08-10.15 221.38-11.58 221.68-13 221.78-14.4L221.78-14.4Q220.93-14.8 219.83-15.05 218.73-15.3 217.53-15.3L217.53-15.3Q214.48-15.3 212.5-13.5 210.53-11.7 210.53-9L210.53-9Q210.53-7 211.63-5.78 212.73-4.55 214.63-4.55ZM235.72 0.5L235.72 0.5Q234.27 0.5 233.57-0.3 232.87-1.1 232.87-3.1L232.87-3.1Q232.87-4.05 233.02-5.55 233.17-7.05 233.37-8.8L233.37-8.8Q233.67-10.95 233.9-13.3 234.12-15.65 234.12-17.8L234.12-17.8Q234.12-20.85 233.85-24.13 233.57-27.4 232.32-29.85L232.32-29.85Q231.87-30.85 231.87-31.3L231.87-31.3Q231.87-31.95 232.45-32.55 233.02-33.15 233.87-33.58 234.72-34 235.52-34L235.52-34Q236.82-34 237.47-32.83 238.12-31.65 238.32-29.63 238.52-27.6 238.52-25L238.52-25Q238.52-21.05 238.2-18.15 237.87-15.25 237.57-13.05L237.57-13.05Q237.37-11.6 237.2-10.3 237.02-9 237.02-7.95L237.02-7.95Q237.02-6.2 237.6-5.43 238.17-4.65 239.47-3.9L239.47-3.9Q239.82-3.7 240-3.53 240.17-3.35 240.17-3L240.17-3Q240.17-2.6 239.77-1.75 239.37-0.9 238.4-0.2 237.42 0.5 235.72 0.5ZM251.27 0.65L251.27 0.65Q247.47 0.65 245.35-1.53 243.22-3.7 243.22-7.6L243.22-7.6Q243.22-11.15 244.77-14.05 246.32-16.95 248.95-18.68 251.57-20.4 254.72-20.4L254.72-20.4Q257.72-20.4 259.52-18.93 261.32-17.45 261.32-15L261.32-15Q261.32-13.05 260.12-11.4 258.92-9.75 256.92-8.78 254.92-7.8 252.47-7.8L252.47-7.8Q249.47-7.8 247.57-9.15L247.57-9.15Q247.62-6.85 249.15-5.45 250.67-4.05 253.07-4.05L253.07-4.05Q254.52-4.05 256.05-4.58 257.57-5.1 258.67-6L258.67-6Q259.37-6.6 259.97-6.6L259.97-6.6Q260.47-6.6 260.8-6.28 261.12-5.95 261.12-5.45L261.12-5.45Q261.12-4.35 259.22-2.55L259.22-2.55Q255.87 0.65 251.27 0.65ZM252.02-11.1L252.02-11.1Q253.82-11.1 255.02-11.85 256.22-12.6 256.22-13.75L256.22-13.75Q256.22-14.7 255.42-15.23 254.62-15.75 253.22-15.75L253.22-15.75Q251.37-15.75 250-14.78 248.62-13.8 248.02-12.05L248.02-12.05Q248.72-11.6 249.82-11.35 250.92-11.1 252.02-11.1Z" opacity="1" transform="matrix(1,0,0,1,0,0)" fill="#1d597d" class="wordmark-text-0" data-fill-palette-color="primary" id="text-0"></path></svg></g></svg></g><g transform="matrix(1,0,0,1,0,40.1942751859354)"><svg viewBox="0 0 192 19.24289195775792" height="19.24289195775792" width="192"><g transform="matrix(1,0,0,1,0,0)"><svg width="192" viewBox="0.75 -38.7 492.4 49.35" height="19.24289195775792" data-palette-color="#1d597d"><path d="M31.4-0.85L24.2 0.25 21.75-9.5 9.8-9.5 7.15 0 0.75-0.5 5.15-12.65 11.85-34.15 20.8-34.8 27.25-13.4 31.4-0.85ZM20.25-14.8L16.3-28.3 15.65-28.3 11.35-14.8 20.25-14.8ZM48.75 0L48.75 0Q46.05 0 44.38-1.78 42.7-3.55 42.7-6.45L42.7-6.45 43-12.2 42.45-24.2 49.15-25.45 48.5-10.25Q48.5-8.1 49.28-7.1 50.05-6.1 51.75-6.1 53.45-6.1 56.45-7.8L56.45-7.8 56.45-10.8 55.9-23.95 62.65-25.2 62.05-12.7 62.1-8.6Q62.1-5.4 63.75-2.15L63.75-2.15 58.55 0.15Q56.9-3.1 56.55-5.05L56.55-5.05Q52.05 0 48.75 0ZM82.75-12.65Q82.75-16.1 82.15-17.25 81.55-18.4 79.35-18.4 77.15-18.4 74.35-16.65L74.35-16.65 74.35-13 74.9-1.25 68.2 0 68.8-12.15Q68.6-18.85 67.7-24.15L67.7-24.15 73.75-25.45Q74.1-22.55 74.25-19.8L74.25-19.8Q75-20.8 75.95-21.78 76.9-22.75 78.95-23.98 81-25.2 83.27-25.2 85.55-25.2 87.1-23.43 88.65-21.65 88.65-18.6L88.65-18.6 88.35-13 88.9-1 82.15 0.25 82.75-12.65ZM94.4-24.2L101.1-25.45 100.5-13 101.05-1.25 94.35 0 94.95-12.15 94.4-24.2ZM94.05-32.77Q94.05-34.45 95.35-35.77 96.65-37.1 98.35-37.1 100.05-37.1 100.95-36.18 101.85-35.25 101.85-33.4 101.85-31.55 100.58-30.23 99.3-28.9 97.63-28.9 95.95-28.9 95-30 94.05-31.1 94.05-32.77ZM105.65-24.2L108.55-24.2 108.55-29.65 115.3-30.95 114.65-24.2 120.7-24.2 120.15-20.1 114.45-20.1 114.2-9.65Q114.2-7.3 114.65-6.53 115.1-5.75 116.3-5.75 117.5-5.75 119.5-6.3L119.5-6.3 119.8-2.75Q116.5 0 114 0 111.5 0 109.9-1.83 108.3-3.65 108.3-6.6L108.3-6.6 108.6-12.2 108.55-20.1 105.1-20.1 105.65-24.2ZM130.55-10.45Q130.55-16.85 134-21.3 137.45-25.75 142.08-25.75 146.7-25.75 149.28-22.75 151.85-19.75 151.85-14.8L151.85-14.8Q151.85-8.2 148.53-3.83 145.2 0.55 140.15 0.55L140.15 0.55Q136 0.55 133.28-2.58 130.55-5.7 130.55-10.45L130.55-10.45ZM146.25-12.2L146.25-12.2Q146.25-19.45 141.3-19.45L141.3-19.45Q136.15-19.45 136.15-12.65L136.15-12.65Q136.15-9.1 137.6-7.1 139.05-5.1 141.43-5.1 143.8-5.1 145.03-6.93 146.25-8.75 146.25-12.2ZM171.05-38.25L169.5-32.55Q167.65-33 166.15-33 164.65-33 163.97-32.1 163.3-31.2 163.3-28.95L163.3-28.95 163.25-24.2 168.65-24.2 168.1-20.1 163.25-20.1 163.2-13 163.75-1.25 157 0 157.6-12.15 157.4-20.1 154.1-20.1 154.65-24.2 157.3-24.2 157.25-28Q157.25-32.45 160-35.58 162.75-38.7 166.7-38.7L166.7-38.7Q168.8-38.7 171.05-38.25L171.05-38.25ZM180.1-34.5L190.95-34.5Q195.75-34.5 198.6-31.78 201.45-29.05 201.45-24.3 201.45-19.55 197.85-16.18 194.25-12.8 189.05-12.8L189.05-12.8 186.2-12.8 186.8 0 180.1 0 180.7-12.15 180.1-34.5ZM189.15-29.45L189.15-29.45 186.7-29.45 186.35-17.65 189.75-17.65Q192.25-17.65 193.63-19.3 195-20.95 195-24L195-24Q195-29.45 189.15-29.45ZM203.9-24.15L203.9-24.15 209.95-25.45Q210.4-21.6 210.55-18.15L210.55-18.15Q215.1-25.2 219.1-25.2L219.1-25.2 218.55-17.4Q215.65-17.4 213.98-16.88 212.3-16.35 210.55-14.8L210.55-14.8 210.55-13 211.1-1.25 204.4 0 205-12.15Q204.8-18.85 203.9-24.15ZM231.25-5.1L231.25-5.1Q232.7-5.1 234.3-5.85 235.9-6.6 236.8-7.35L236.8-7.35 237.7-8.1 240-5.3Q239.5-4.45 238.45-3.35 237.4-2.25 236.33-1.48 235.25-0.7 233.48-0.08 231.7 0.55 229.8 0.55L229.8 0.55Q225.75 0.55 223.2-2.53 220.65-5.6 220.65-10.45L220.65-10.45Q220.65-16.55 224.2-21.15 227.75-25.75 232.5-25.75L232.5-25.75Q236.15-25.75 238.18-23.7 240.2-21.65 240.2-17.95L240.2-17.95Q240.2-15.75 239.45-12.95L239.45-12.95 238.45-11.9 225.95-10.75Q226.8-5.1 231.25-5.1ZM231.25-20.6L231.25-20.6Q229.05-20.6 227.55-18.82 226.05-17.05 225.8-14.3L225.8-14.3 234.3-15.35Q234.45-16.5 234.45-17.25L234.45-17.25Q234.45-20.6 231.25-20.6ZM259.05-12.65Q259.05-16.1 258.45-17.25 257.85-18.4 255.65-18.4 253.45-18.4 250.65-16.65L250.65-16.65 250.65-13 251.2-1.25 244.5 0 245.1-12.15Q244.9-18.85 244-24.15L244-24.15 250.05-25.45Q250.4-22.55 250.55-19.8L250.55-19.8Q251.3-20.8 252.25-21.78 253.2-22.75 255.25-23.98 257.3-25.2 259.4-25.2 261.5-25.2 262.95-23.85 264.4-22.5 264.8-20.15L264.8-20.15Q268.95-25.2 273.2-25.2L273.2-25.2Q275.85-25.2 277.4-23.43 278.95-21.65 278.95-18.6L278.95-18.6 278.65-13 279.2-1 272.45 0.25 273.05-12.65Q273.05-16.1 272.45-17.25 271.85-18.4 269.7-18.4 267.55-18.4 264.85-16.75L264.85-16.75 264.65-13 265.2-1 258.45 0.25 259.05-12.65ZM284.7-24.2L291.4-25.45 290.8-13 291.35-1.25 284.65 0 285.25-12.15 284.7-24.2ZM284.35-32.77Q284.35-34.45 285.65-35.77 286.95-37.1 288.65-37.1 290.35-37.1 291.25-36.18 292.15-35.25 292.15-33.4 292.15-31.55 290.88-30.23 289.6-28.9 287.93-28.9 286.25-28.9 285.3-30 284.35-31.1 284.35-32.77ZM302.9 0L302.9 0Q300.2 0 298.53-1.78 296.85-3.55 296.85-6.45L296.85-6.45 297.15-12.2 296.6-24.2 303.3-25.45 302.65-10.25Q302.65-8.1 303.43-7.1 304.2-6.1 305.9-6.1 307.6-6.1 310.6-7.8L310.6-7.8 310.6-10.8 310.05-23.95 316.8-25.2 316.2-12.7 316.25-8.6Q316.25-5.4 317.9-2.15L317.9-2.15 312.7 0.15Q311.05-3.1 310.7-5.05L310.7-5.05Q306.2 0 302.9 0ZM336.9-12.65Q336.9-16.1 336.3-17.25 335.7-18.4 333.5-18.4 331.3-18.4 328.5-16.65L328.5-16.65 328.5-13 329.05-1.25 322.35 0 322.95-12.15Q322.75-18.85 321.85-24.15L321.85-24.15 327.9-25.45Q328.25-22.55 328.4-19.8L328.4-19.8Q329.15-20.8 330.1-21.78 331.05-22.75 333.1-23.98 335.15-25.2 337.25-25.2 339.35-25.2 340.8-23.85 342.25-22.5 342.65-20.15L342.65-20.15Q346.8-25.2 351.05-25.2L351.05-25.2Q353.7-25.2 355.25-23.43 356.8-21.65 356.8-18.6L356.8-18.6 356.5-13 357.05-1 350.3 0.25 350.9-12.65Q350.9-16.1 350.3-17.25 349.7-18.4 347.55-18.4 345.4-18.4 342.7-16.75L342.7-16.75 342.5-13 343.05-1 336.3 0.25 336.9-12.65ZM387.8 0L371.35 0 371.95-12.15 371.35-33.5 378.45-34.75 377.75-13 378.1-4.9 388.35-5.7 387.8 0ZM391.55-24.2L398.25-25.45 397.65-13 398.2-1.25 391.5 0 392.1-12.15 391.55-24.2ZM391.2-32.77Q391.2-34.45 392.5-35.77 393.8-37.1 395.5-37.1 397.2-37.1 398.1-36.18 399-35.25 399-33.4 399-31.55 397.73-30.23 396.45-28.9 394.78-28.9 393.1-28.9 392.15-30 391.2-31.1 391.2-32.77ZM416.9 0.55L416.9-4.8Q413.2 0 410 0 406.8 0 404.45-2.8 402.1-5.6 402.1-10.35L402.1-10.35Q402.1-16.6 405.58-20.9 409.05-25.2 414.1-25.2L414.1-25.2 418.85-24.55 423.1-25.75 422.5-13 423.1 9.4 416.25 10.65 416.9 0.55ZM407.7-13.15L407.7-13.15Q407.7-6.15 412.25-6.15L412.25-6.15Q414.5-6.15 416.9-7.95L416.9-7.95 416.9-12.15 416.55-18.85Q413.45-19.35 412.45-19.35L412.45-19.35Q410.25-19.35 408.98-17.82 407.7-16.3 407.7-13.15ZM434.9 0L434.9 0Q432.2 0 430.53-1.78 428.85-3.55 428.85-6.45L428.85-6.45 429.15-12.2 428.6-24.2 435.3-25.45 434.65-10.25Q434.65-8.1 435.43-7.1 436.2-6.1 437.9-6.1 439.6-6.1 442.6-7.8L442.6-7.8 442.6-10.8 442.05-23.95 448.8-25.2 448.2-12.7 448.25-8.6Q448.25-5.4 449.9-2.15L449.9-2.15 444.7 0.15Q443.05-3.1 442.7-5.05L442.7-5.05Q438.2 0 434.9 0ZM452.9-10.45Q452.9-16.85 456.35-21.3 459.8-25.75 464.43-25.75 469.05-25.75 471.63-22.75 474.2-19.75 474.2-14.8L474.2-14.8Q474.2-8.2 470.88-3.83 467.55 0.55 462.5 0.55L462.5 0.55Q458.35 0.55 455.63-2.58 452.9-5.7 452.9-10.45L452.9-10.45ZM468.6-12.2L468.6-12.2Q468.6-19.45 463.65-19.45L463.65-19.45Q458.5-19.45 458.5-12.65L458.5-12.65Q458.5-9.1 459.95-7.1 461.4-5.1 463.78-5.1 466.15-5.1 467.38-6.93 468.6-8.75 468.6-12.2ZM477.95-24.15L477.95-24.15 484-25.45Q484.45-21.6 484.6-18.15L484.6-18.15Q489.15-25.2 493.15-25.2L493.15-25.2 492.6-17.4Q489.7-17.4 488.03-16.88 486.35-16.35 484.6-14.8L484.6-14.8 484.6-13 485.15-1.25 478.45 0 479.05-12.15Q478.85-18.85 477.95-24.15Z" opacity="1" transform="matrix(1,0,0,1,0,0)" fill="#1d597d" class="slogan-text-1" data-fill-palette-color="secondary" id="text-1"></path></svg></g></svg></g></svg></g></svg></g><g transform="matrix(1,0,0,1,39.58146972777948,0)"><svg viewBox="0 0 112.83706054444104 107.60623614028528" height="107.60623614028528" width="112.83706054444104"><g><svg xmlns="http://www.w3.org/2000/svg" xmlns:xlink="http://www.w3.org/1999/xlink" version="1.1" x="0" y="0" viewBox="2.759 5.835 84.06188460767933 80.16500041605336" enable-background="new 0 0 91 91" xml:space="preserve" height="107.60623614028528" width="112.83706054444104" class="icon-icon-0" data-fill-palette-color="accent" id="icon-0"><g fill="#83b6b9" data-fill-palette-color="accent"><path d="M34.362 40.791V26.065A1.8 1.8 0 0 0 35.878 24.289C35.878 23.298 35.07 22.492 34.077 22.492H30.597V21.672A8.38 8.38 0 0 0 35.173 14.213C35.173 9.594 31.415 5.835 26.796 5.835S18.417 9.594 18.417 14.213A8.38 8.38 0 0 0 22.993 21.672V22.492H19.514A1.8 1.8 0 0 0 17.715 24.289 1.8 1.8 0 0 0 19.231 26.065V40.79C9.504 44.014 2.759 53.316 2.759 63.61 2.759 72.763 7.847 81.001 16.038 85.106A8.55 8.55 0 0 0 19.847 86H33.749C35.073 86 36.389 85.69 37.554 85.106 45.745 81.002 50.833 72.764 50.833 63.61 50.833 53.316 44.088 44.014 34.362 40.791M19.917 14.213A6.886 6.886 0 0 1 26.796 7.335 6.885 6.885 0 0 1 33.673 14.213C33.673 16.942 32.053 19.413 29.546 20.51A0.75 0.75 0 0 0 29.097 21.198V22.493H24.493V21.198A0.75 0.75 0 0 0 24.044 20.51 6.88 6.88 0 0 1 19.917 14.213M29.097 23.992V30.994A0.36 0.36 0 0 1 28.738 31.355H24.853A0.36 0.36 0 0 1 24.494 30.994V23.992zM49.333 63.61C49.333 72.193 44.562 79.916 36.882 83.765A7 7 0 0 1 33.749 84.499H19.847A7 7 0 0 1 16.71 83.764C9.03 79.915 4.259 72.192 4.259 63.61 4.259 60.397 4.971 57.293 6.242 54.462 6.504 54.713 7.558 55.668 9.354 56.652 8.503 58.845 7.94 61.462 7.94 64.558A0.75 0.75 0 0 0 9.44 64.558C9.44 61.73 9.946 59.337 10.708 57.327 14.426 59.001 20.368 60.292 28.314 57.643 39.735 53.831 47.582 58.195 48.819 58.955 49.146 60.47 49.333 62.025 49.333 63.61M27.84 56.22C20.317 58.729 14.741 57.502 11.3 55.949 13.791 50.738 17.933 48.572 18.182 48.446A0.75 0.75 0 0 0 17.51 47.105C17.237 47.242 12.683 49.603 9.958 55.277 8.268 54.335 7.35 53.449 7.247 53.346A0.74 0.74 0 0 0 6.868 53.157C9.619 47.944 14.36 43.839 20.2 42.056A0.75 0.75 0 0 0 20.731 41.338V25.338A0.75 0.75 0 0 0 19.981 24.588H19.514A0.298 0.298 0 1 1 19.514 23.992H22.993V30.994C22.993 32.02 23.827 32.855 24.852 32.855H28.737A1.86 1.86 0 0 0 30.596 30.994V23.992H34.076A0.3 0.3 0 0 1 34.377 24.289 0.3 0.3 0 0 1 34.076 24.588H33.611A0.75 0.75 0 0 0 32.861 25.338V41.339C32.861 41.669 33.077 41.96 33.392 42.057 40.585 44.252 46.103 49.977 48.293 56.953 45.235 55.443 37.896 52.869 27.84 56.22" fill="#83b6b9" data-fill-palette-color="accent"></path><path d="M8.161 67.084C8.021 67.214 7.941 67.414 7.941 67.614S8.021 68.004 8.161 68.134C8.301 68.284 8.491 68.364 8.691 68.364 8.89 68.364 9.081 68.284 9.22 68.144A0.77 0.77 0 0 0 9.441 67.614C9.441 67.414 9.361 67.224 9.22 67.074 8.931 66.805 8.441 66.794 8.161 67.084" fill="#83b6b9" data-fill-palette-color="accent"></path><path d="M37.372 80.281C36.954 80.145 33.114 78.953 26.911 78.953 20.327 78.953 16.252 80.27 16.212 80.284A0.75 0.75 0 0 0 16.68 81.708C16.718 81.696 20.684 80.453 26.91 80.453 32.882 80.453 36.512 81.579 36.911 81.709A0.75 0.75 0 0 0 37.853 81.227 0.75 0.75 0 0 0 37.372 80.281" fill="#83b6b9" data-fill-palette-color="accent"></path><path d="M86.702 58.488A0.75 0.75 0 0 0 86.071 58.143H55.747A0.75 0.75 0 0 0 55.064 59.205C55.093 59.268 57.984 65.654 58.931 72.798 59.899 80.117 59.914 84.652 59.914 84.696 59.914 85.415 60.498 86 61.217 86H80.598C81.318 86 81.903 85.415 81.903 84.696 81.903 84.651 81.919 80.117 82.888 72.798 83.834 65.664 86.724 59.269 86.753 59.205A0.75 0.75 0 0 0 86.702 58.488M81.402 72.601C80.529 79.19 80.419 83.548 80.405 84.5H61.413C61.403 83.802 61.34 81.264 60.964 77.362H78.823A0.75 0.75 0 0 0 78.823 75.862H60.811C60.701 74.846 60.572 73.76 60.418 72.6 59.663 66.903 57.762 61.788 56.883 59.643H84.936C84.058 61.789 82.157 66.902 81.402 72.601" fill="#83b6b9" data-fill-palette-color="accent"></path><path d="M60.255 62.427C60.271 62.462 61.854 65.953 62.52 70.03 62.561 70.284 62.599 70.537 62.633 70.79A0.75 0.75 0 1 0 64.12 70.588 39 39 0 0 0 64.002 69.791C63.303 65.515 61.688 61.953 61.619 61.804A0.747 0.747 0 0 0 60.626 61.434 0.747 0.747 0 0 0 60.255 62.427" fill="#83b6b9" data-fill-palette-color="accent"></path><path d="M63.051 72.044A0.75 0.75 0 0 0 63.051 73.104 0.75 0.75 0 1 0 64.111 72.044 0.765 0.765 0 0 0 63.051 72.044" fill="#83b6b9" data-fill-palette-color="accent"></path></g></svg></g></svg></g><g></g></svg></g></svg></g></svg></g><defs></defs></svg><rect width="320" height="360" fill="none" stroke="none" visibility="hidden"></rect></g></svg></g></svg>