<svg xmlns="http://www.w3.org/2000/svg" xml:space="preserve" width="1500" height="101" data-id="lg_MxOkqFD0YltiQ6A3Tu" data-version="1"><g data-padding="20"><path stroke="null" stroke-width=".915" d="m507.587 62.654-15.3-37.083-5.944-1.55q-.231-1.465.385-2.698 2.081.077 4.673.23t4.75.155q2.245 0 5.02-.154 2.784-.154 4.951-.231.232 1.464-.154 2.697-1.397.309-2.746.617-1.348.318-2.591.934l6.648 16.995q1.079 2.63 1.897 5.251.81 2.63 1.35 5.26h.23q.617-2.244 1.195-4.364.578-2.13 1.359-4.374l7.331-18.768-6.098-1.55q-.231-1.465.385-2.698 2.081.077 3.94.23 1.85.155 4.018.155 2.245 0 4.056-.154t3.98-.231q.23 1.464-.155 2.697-1.464.309-2.9.617-1.426.318-2.582.934l-14.22 36.081q-.54.308-1.657.655-1.128.347-1.821.347Zm33.922-23.18v1.55q0 7.805 3.132 12.092 3.121 4.287 8.536 4.287 2.389 0 4.017-.27 1.619-.27 3.208-1.05 1.58-.77 3.584-2.158 1.243.54 1.397 1.85-2.399 2.784-5.722 4.336-3.315 1.541-6.716 1.541-5.877 0-10.28-2.476-4.402-2.466-6.878-7.11-2.467-4.634-2.467-11.041 0-6.57 2.582-11.166 2.592-4.596 6.956-7.033t9.702-2.438q6.87 0 10.155 4.605Q566 29.59 566 36.853v1.002q0 .463-.077 1.002l-1.08.848Zm10.974-15.762q-2.245 0-4.451 1.397-2.197 1.387-3.902 4.172-1.696 2.774-2.312 7.023l16.84-.925q0-5.944-1.271-8.806-1.282-2.861-4.904-2.861Zm-4.181-8.266 6.185-13.44q1.773.308 3.4 1.04 1.62.732 2.785 2.052-2.399 3.237-4.72 6.214-2.313 2.978-4.866 5.444-.694-.154-1.426-.463t-1.358-.847ZM584.16 34.3v22.178l7.486 1.542q.24 1.464-.386 2.707-1.387-.077-3.43-.154l-4.065-.154q-2.004-.077-3.469-.077-2.167 0-4.72.115-2.544.116-4.712.27-.23-1.474.154-2.707 1.475-.385 2.9-.694t2.515-.848V26.342l-6.416-.616q-.232-1.552.385-2.708 2.784-.385 5.607-.925 2.813-.54 5.212-1.156.771.077 1.272.27t1.272.578v7.033l.086.077q2.39-3.555 5.367-6.03t6.368-2.477q1.32 0 2.592.193 1.272.202 2.514.973.155 3.17-.27 6.021-.423 2.862-1.28 5.569-.54.077-1.696.039t-1.773-.347l-1.089-7.727q-2.697 0-5.443 1.965-2.746 1.975-4.981 7.226Zm33.604-12.515v34.693l5.174 1.542q.241 1.464-.385 2.707-2.081-.154-4.288-.27-2.196-.115-4.364-.115-2.158 0-4.711.115t-4.711.27q-.232-1.474.154-2.707 1.464-.385 2.9-.694 1.426-.308 2.505-.848V26.342l-6.407-.616q-.241-1.552.385-2.708 2.775-.385 5.598-.925t5.212-1.156q.78.077 1.474.27t1.464.578Zm-5.173-7.88q-1.32 0-2.4-.849-1.078-.857-1.695-2.09t-.616-2.322q0-1.002.847-2.043t2.12-1.782q1.281-.732 2.515-.732 1.387 0 2.476.886 1.079.896 1.657 2.09t.578 2.284q0 1.002-.81 2.081t-2.09 1.782q-1.272.694-2.582.694Zm27.506 47.67q-2.476 0-4.48-.925-2.014-.934-3.131-3.208-1.118-2.283-1.118-6.301V26.496h-5.414q-.463-.848-.501-1.734-.039-.896.115-1.744 3.247 0 4.866-.848 1.628-.847 2.514-2.938.887-2.081 1.889-5.636h4.104v8.652h8.112q1.079 2.235 0 4.248h-8.112v22.718q0 3.555.347 5.366.346 1.821 1.194 2.476t2.322.656q1.233 0 2.39-.463t2.244-1.079q1.08.694 1.156 2.312-.847 1.002-3.092 2.052-2.235 1.041-5.405 1.041Zm20.319-22.101v1.55q0 7.805 3.131 12.092t8.536 4.287q2.399 0 4.018-.27t3.208-1.05q1.58-.77 3.593-2.158 1.234.54 1.388 1.85-2.4 2.784-5.713 4.336-3.324 1.541-6.725 1.541-5.877 0-10.28-2.476-4.403-2.466-6.87-7.11-2.475-4.634-2.475-11.041 0-6.57 2.591-11.166 2.582-4.596 6.947-7.033t9.701-2.438q6.88 0 10.155 4.605 3.285 4.596 3.285 11.86v1.002q0 .463-.077 1.002l-1.079.848Zm10.973-15.762q-2.244 0-4.441 1.397-2.206 1.387-3.902 4.172-1.705 2.774-2.322 7.023l16.841-.925q0-5.944-1.272-8.806t-4.904-2.861Zm-4.171-8.266 6.175-13.44q1.783.308 3.401 1.04 1.628.732 2.785 2.052-2.4 3.237-4.712 6.214-2.322 2.978-4.875 5.444-.693-.154-1.426-.463t-1.348-.847ZM721.373 34.3v22.178l7.496 1.542q.231 1.464-.385 2.707-1.388-.077-3.44-.154l-4.056-.154q-2.004-.077-3.468-.077-2.168 0-4.721.115-2.544.116-4.711.27-.232-1.474.154-2.707 1.474-.385 2.9-.694t2.514-.848V26.342l-6.416-.616q-.231-1.552.385-2.708 2.785-.385 5.598-.925 2.823-.54 5.222-1.156.77.077 1.271.27t1.272.578v7.033l.077.077q2.4-3.555 5.376-6.03t6.368-2.477q1.32 0 2.592.193 1.272.202 2.515.973.154 3.17-.27 6.021-.424 2.862-1.281 5.569-.54.077-1.696.039t-1.782-.347l-1.08-7.727q-2.707 0-5.443 1.965-2.746 1.975-4.99 7.226Zm20.637 6.725q0-6.031 2.351-10.742 2.36-4.712 6.763-7.419t10.357-2.707q6.022 0 10.386 2.707t6.725 7.419 2.36 10.742q0 6.176-2.36 10.887-2.36 4.72-6.725 7.341-4.364 2.63-10.386 2.63-5.954 0-10.357-2.63-4.403-2.62-6.763-7.341-2.35-4.711-2.35-10.887Zm30.599 1.079q0-5.174-1.166-9.384-1.156-4.22-3.632-6.725-2.466-2.514-6.484-2.514-4.094 0-6.532 2.476-2.437 2.466-3.44 6.56-1.001 4.105-1.001 9.047 0 4.48 1.156 8.382t3.67 6.263q2.515 2.35 6.455 2.35 4.172 0 6.561-2.312 2.4-2.322 3.401-6.108 1.012-3.786 1.012-8.035Zm19.702 39.02q-1.32-2.014-2.668-4.635-1.35-2.63-1.744-5.26.472-.386 1.358-.733t1.58-.346l4.943 5.8q2.09-2.014 4.297-6.07 2.196-4.056 4.133-9.23l-14.066-35.079-5.954-1.55q-.232-1.465.395-2.698 2.08.077 4.518.23 2.428.155 4.596.155 2.235 0 4.826-.154t4.75-.231q.231 1.464-.154 2.697-1.387.309-2.736.617-1.359.318-2.592.934l6.417 15.531q.385.925 1.156 2.813.77 1.898 1.541 4.287.771 2.4 1.243 4.875h.231q.463-1.782 1.002-4.133.54-2.36 2.004-6.146l6.571-17.227-5.328-1.55q-.231-1.465.386-2.698 2.08.077 3.747.23 1.657.155 3.825.155 2.235 0 3.787-.154 1.541-.154 3.709-.231.231 1.464-.154 2.697-1.397.309-2.823.617-1.426.318-2.515.934l-15.145 38.393q-2.004 5.107-4.48 8.97-2.466 3.863-5.174 6.021-2.707 2.168-5.482 2.168Zm48.981-19.472q-4.634 0-7.803-2.437-3.17-2.428-3.17-7.38 0-3.864 1.898-6.33 1.888-2.476 5.096-3.825 3.209-1.358 7.15-1.82t8.034-.386l.077-6.792q.077-4.336-1.628-6.687-1.696-2.36-5.174-2.36-1.926 0-3.709.27-1.773.27-3.555.896l-1.002 8.189q-.616.308-1.695.347-1.09.038-1.706-.039-.693-2.553-1.156-5.106-.462-2.544-.385-4.943 3.632-1.695 7.303-2.389 3.67-.703 7.996-.703t6.985 1.397q2.669 1.387 3.94 4.788 1.282 3.401 1.282 9.5v20.713q1.31.617 2.697.887 1.397.27 2.708.655.231 1.464-.386 2.707-1.233.231-2.977.386-1.734.154-3.516.154-2.544 0-4.403-.463l-1.08-4.017h-.307q-1.937 2.004-4.789 3.4-2.861 1.388-6.725 1.388Zm2.939-4.249q2.158 0 4.634-1.358 2.476-1.349 3.632-3.045V42.566q-7.958 0-11.205 1.898-3.246 1.889-3.246 6.6 0 3.17 1.705 4.75 1.696 1.59 4.48 1.59Zm36.697-54.627v53.702l5.954 1.542q.232 1.464-.385 2.707-2.09-.154-4.682-.27-2.582-.115-4.75-.115-2.158 0-4.711.115t-4.712.27q-.23-1.474.155-2.707 1.464-.385 2.89-.694 1.435-.308 2.514-.848V7.333l-6.416-.616q-.231-1.542.395-2.707 2.775-.386 5.598-.925t5.212-1.156q.78.077 1.474.27t1.464.577Zm18.007 36.698v1.55q0 7.805 3.121 12.092 3.132 4.287 8.546 4.287 2.39 0 4.018-.27 1.618-.27 3.198-1.05 1.59-.77 3.594-2.158 1.243.54 1.397 1.85-2.4 2.784-5.723 4.336-3.324 1.541-6.715 1.541-5.877 0-10.28-2.476-4.403-2.466-6.879-7.11-2.466-4.634-2.466-11.041 0-6.57 2.582-11.166 2.591-4.596 6.956-7.033t9.692-2.438q6.879 0 10.164 4.605 3.285 4.596 3.285 11.86v1.002q0 .463-.077 1.002l-1.079.848Zm10.964-15.762q-2.235 0-4.442 1.397-2.196 1.387-3.902 4.172-1.695 2.774-2.312 7.023l16.841-.925q0-5.944-1.272-8.806-1.281-2.861-4.913-2.861Z" font-family="Alike" font-size="80.197"/><path stroke="null" stroke-width=".963" d="M614.914 95.363q-1.561 0-2.794-.761-1.224-.771-1.927-2.187-.694-1.407-.694-3.344 0-1.946.694-3.362.703-1.416 1.927-2.187 1.233-.761 2.794-.761.925 0 1.744.27t1.483.79q.655.51 1.099 1.252.443.752.606 1.686h-1.483q-.135-.636-.463-1.127-.327-.482-.79-.819t-1.02-.5q-.56-.174-1.176-.174-1.108 0-2.014.568-.906.559-1.435 1.667-.54 1.098-.54 2.697 0 1.59.54 2.688.53 1.09 1.435 1.658.906.558 2.014.558.616 0 1.175-.163.559-.174 1.021-.501.463-.338.79-.82.328-.49.463-1.136h1.483q-.163.954-.606 1.695t-1.099 1.253q-.665.52-1.483.79t-1.744.27Zm12.688-7.814h-1.185l-.173-4.624h1.532Zm14.635 7.65h-7.496V82.925h7.409v1.32h-5.925v4.094h5.53v1.32h-5.53v4.22h6.012Zm10.222.212q-1.32 0-2.284-.424t-1.512-1.185-.617-1.763h1.532q.068.684.472 1.137.405.462 1.04.684t1.369.221q.848 0 1.532-.279.674-.28 1.07-.79.394-.501.394-1.175 0-.607-.347-.993-.337-.376-.896-.616-.559-.232-1.204-.415l-1.503-.433q-1.445-.414-2.283-1.176-.829-.77-.829-2.023 0-1.021.55-1.792.558-.77 1.512-1.204.954-.424 2.12-.424 1.184 0 2.11.424t1.464 1.146q.549.733.578 1.657h-1.445q-.116-.905-.877-1.406-.761-.51-1.879-.51-.809 0-1.416.269-.607.26-.944.723-.347.462-.347 1.06 0 .645.405 1.05.404.395.963.616t1.012.357l1.233.346q.482.135 1.07.357t1.136.597.896.973q.357.588.357 1.455 0 .983-.52 1.792-.52.8-1.504 1.272-.992.472-2.408.472Zm13.816-11.166H662.4v-1.32h9.21v1.32h-3.853v10.954h-1.483Zm23.662 10.954h-2.949v-1.32h2.852q1.522 0 2.524-.588 1.002-.578 1.494-1.666.5-1.09.5-2.592 0-1.484-.49-2.553-.482-1.08-1.455-1.657-.964-.578-2.409-.578h-3.083v-1.32h3.18q1.791 0 3.063.732t1.946 2.1q.675 1.378.675 3.276 0 1.927-.684 3.305t-1.985 2.12q-1.31.74-3.18.74Zm-3.787-12.274h1.484v12.274h-1.484Zm23.932 8.006v-8.006h1.484v8.122q0 1.262-.588 2.244t-1.667 1.551q-1.07.569-2.505.569-1.445 0-2.524-.569-1.07-.568-1.667-1.55-.587-.983-.587-2.245v-8.122h1.483v8.006q0 .896.395 1.6t1.137 1.098q.742.404 1.763.404t1.754-.404q.732-.395 1.127-1.099t.395-1.6Zm23.893 4.268h-7.206V82.925h1.483v10.954h5.723Zm14.095-4.268v-8.006h1.484v8.122q0 1.262-.588 2.244t-1.666 1.551q-1.07.569-2.505.569-1.446 0-2.525-.569-1.069-.568-1.666-1.55-.588-.983-.588-2.245v-8.122h1.484v8.006q0 .896.395 1.6t1.137 1.098q.741.404 1.763.404t1.753-.404q.732-.395 1.127-1.099t.395-1.6Zm7.178-8.006h1.744l3.16 5.106h.106l3.16-5.106h1.744l-3.854 6.146 3.854 6.128h-1.744l-3.16-5.01h-.106l-3.16 5.01h-1.744l3.95-6.128Zm23.093 12.274h-7.495V82.925h7.409v1.32h-5.925v4.094h5.53v1.32h-5.53v4.22h6.011Z" font-family="Inter Tight" font-size="17.514"/><path fill="#9fa6b2" d="m1009.783 36.521-16.167-.84v-2.613h1.86V27.48h-3.72v-1.622h9.3l4.025-4.005v-5.676l-4.025-4.015h-32.124l-4.025 4.015v5.656l4.025 4.025h9.309v1.612h-3.72v5.59h1.85v2.613l-16.166.84-3.94 3.176v56.179l3.968 3.204h49.522l3.967-3.204v-56.17Zm-16.596-6.62v.764h-4.407a4 4 0 0 0-.219-.763Zm-8.193-2.403a3.82 3.82 0 0 0-2.833 1.26h-1.64v-2.9h8.946v2.89h-1.64a3.82 3.82 0 0 0-2.833-1.25m2.718 3.863a2.718 2.718 0 0 1-5.436-.01 2.718 2.718 0 0 1 5.436 0m-2.718 3.873a3.853 3.853 0 0 0 3.815-3.405h2.518v5.064h-12.666V31.82h2.518c.229 1.907 1.84 3.405 3.815 3.405m15.47-20.412 1.279 1.279h-1.278Zm0 2.423h2.328v3.472h-2.356Zm-.028 4.626h1.393l-1.393 1.393Zm-30.903-7.058v1.288h-1.288Zm-2.337 2.432h2.337l.01 3.472h-2.357Zm2.356 6.01-1.393-1.384h1.393Zm1.116-8.795h28.652v1.64h-28.652Zm0 2.785h28.652l-.02 3.472h-28.613Zm.028 6.343V21.86h28.605v1.717Zm6.105 6.324h4.626q-.143.372-.23.763h-4.406Zm-.64 8.078v.048h17.665v-.038l14.422.734-.992 1.679-7.678-.02a1 1 0 0 0-.287-.094h-28.604a1 1 0 0 0-.286.095l-7.678.019-.992-1.679Zm-15.995 58.106-1.621-1.297V41.757l1.621 1.002Zm-1.335-55.511 1.812-1.46 1.02 1.736-1.067.83Zm27.346 56.217h-20.583a68 68 0 0 1 10.377-2.537c3.205-.468 6.2-.678 9.023-.725a71 71 0 0 1 9.023.725 68 68 0 0 1 10.377 2.537Zm22.51-.038a77.3 77.3 0 0 0-14.336-3.596 66 66 0 0 0-9.357-.859 66 66 0 0 0-9.357.859c-4.464.667-9.261 1.812-14.326 3.596V42.578l1.297-1.02 22.386-.077 22.386.067 1.297 1.01Zm.705-55.073-1.059-.83 1.021-1.736 1.812 1.47Zm2.041 25.467v27.64l-1.612 1.298V42.749l1.622-1.001Z"/><path fill="#9fa6b2" d="M970.134 49.607v25.324h29.73V49.607Zm28.585 24.189h-27.46V50.752h27.47Z"/><path fill="transparent" stroke="transparent" d="M476.5 0h547v101h-547z"/></g></svg>