<svg xmlns="http://www.w3.org/2000/svg" xml:space="preserve" width="1500" height="1500" fill="#fff" stroke="#fff" data-id="lg_MxOkqFD0YltiQ6A3Tu" data-version="1"><path fill="#000" stroke="transparent" d="M0 0h1500v1500H0z"/><g data-padding="20"><path stroke="null" stroke-width="1.673" d="m306.831 772.22-27.97-67.793-10.866-2.836q-.423-2.677.704-4.932 3.805.141 8.542.423t8.684.282q4.104 0 9.176-.282 5.09-.282 9.053-.423.423 2.677-.282 4.932-2.553.564-5.02 1.127-2.465.581-4.737 1.709l12.153 31.07q1.973 4.808 3.47 9.598 1.48 4.809 2.465 9.617h.423q1.127-4.104 2.184-7.979 1.057-3.892 2.484-7.996l13.403-34.31-11.149-2.836q-.423-2.677.705-4.932 3.804.141 7.203.423 3.382.282 7.345.282 4.104 0 7.415-.282t7.274-.423q.423 2.677-.281 4.932-2.678.564-5.302 1.127-2.607.581-4.72 1.709l-25.997 65.96q-.987.564-3.03 1.198-2.06.634-3.329.634Zm62.016-42.378v2.836q0 14.267 5.724 22.104 5.707 7.838 15.606 7.838 4.368 0 7.344-.493 2.96-.493 5.866-1.92 2.888-1.409 6.552-3.945 2.272.986 2.553 3.382-4.385 5.09-10.462 7.926-6.059 2.818-12.276 2.818-10.744 0-18.793-4.527-8.05-4.509-12.576-12.998-4.509-8.472-4.509-20.185 0-12.012 4.72-20.414 4.738-8.401 12.717-12.857t17.736-4.456q12.559 0 18.565 8.419 6.006 8.401 6.006 21.682v1.831q0 .846-.141 1.832l-1.973 1.55Zm20.062-28.815q-4.104 0-8.138 2.554-4.016 2.536-7.133 7.627-3.1 5.072-4.227 12.84l30.788-1.691q0-10.868-2.325-16.099-2.343-5.23-8.965-5.23Zm-7.645-15.112 11.308-24.57q3.24.564 6.217 1.902 2.96 1.339 5.09 3.752-4.385 5.918-8.63 11.36-4.227 5.443-8.894 9.952-1.269-.282-2.607-.846t-2.484-1.55Zm65.556 34.47v40.544l13.686 2.819q.44 2.677-.705 4.949-2.536-.141-6.27-.282l-7.433-.282q-3.663-.14-6.34-.14-3.963 0-8.63.21-4.65.212-8.614.494-.422-2.695.282-4.95 2.695-.704 5.302-1.268t4.597-1.55v-55.093l-11.73-1.128q-.423-2.835.704-4.949 5.09-.704 10.25-1.69 5.144-.987 9.53-2.114 1.408.14 2.324.493t2.325 1.057v12.857l.159.141q4.368-6.5 9.81-11.026t11.643-4.526q2.413 0 4.738.352 2.324.37 4.597 1.779.281 5.795-.494 11.008-.775 5.231-2.342 10.18-.987.141-3.1.071t-3.24-.634l-1.991-14.126q-4.932 0-9.952 3.593-5.02 3.61-9.106 13.21Zm61.435-22.88v63.424l9.458 2.819q.44 2.677-.704 4.949-3.805-.282-7.838-.493-4.016-.212-7.979-.212-3.945 0-8.613.212t-8.613.493q-.422-2.695.282-4.95 2.677-.704 5.302-1.268 2.607-.563 4.58-1.55v-55.093l-11.713-1.128q-.44-2.835.704-4.949 5.073-.704 10.233-1.69t9.529-2.114q1.427.14 2.695.493t2.677 1.057Zm-9.458-14.408q-2.413 0-4.386-1.55-1.973-1.567-3.1-3.822t-1.127-4.245q0-1.831 1.55-3.734t3.875-3.258q2.342-1.339 4.597-1.339 2.536 0 4.526 1.62 1.973 1.639 3.03 3.823t1.057 4.174q0 1.832-1.48 3.805t-3.822 3.258q-2.325 1.268-4.72 1.268Zm50.285 87.15q-4.526 0-8.19-1.691-3.681-1.709-5.724-5.865-2.043-4.175-2.043-11.52v-45.054h-9.899q-.845-1.55-.916-3.17-.07-1.638.212-3.188 5.935 0 8.894-1.55 2.977-1.55 4.597-5.372 1.62-3.804 3.452-10.303h7.504v15.816h14.83q1.972 4.086 0 7.767h-14.83v41.532q0 6.5.634 9.81.634 3.33 2.184 4.527t4.244 1.198q2.255 0 4.368-.845t4.104-1.973q1.973 1.268 2.114 4.227-1.55 1.832-5.654 3.752-4.086 1.902-9.88 1.902Zm37.146-40.405v2.836q0 14.267 5.724 22.104t15.606 7.838q4.385 0 7.344-.493t5.865-1.92q2.889-1.409 6.57-3.945 2.255.986 2.536 3.382-4.385 5.09-10.444 7.926-6.077 2.818-12.294 2.818-10.744 0-18.793-4.527-8.05-4.509-12.558-12.998-4.527-8.472-4.527-20.185 0-12.012 4.738-20.414 4.72-8.401 12.699-12.857t17.736-4.456q12.576 0 18.565 8.419 6.005 8.4 6.005 21.682v1.831q0 .846-.141 1.832l-1.973 1.55Zm20.062-28.815q-4.104 0-8.12 2.554-4.034 2.536-7.133 7.627-3.118 5.072-4.245 12.84l30.788-1.691q0-10.868-2.325-16.099t-8.965-5.23Zm-7.627-15.112 11.29-24.57q3.258.564 6.217 1.902 2.977 1.339 5.09 3.752-4.385 5.918-8.612 11.36-4.245 5.443-8.912 9.952-1.269-.282-2.607-.846t-2.466-1.55Zm99.003 34.47v40.544l13.703 2.819q.423 2.677-.704 4.949-2.537-.141-6.288-.282l-7.415-.282q-3.664-.14-6.34-.14-3.964 0-8.631.21-4.65.212-8.613.494-.423-2.695.282-4.95 2.694-.704 5.301-1.268t4.597-1.55v-55.093l-11.73-1.128q-.423-2.835.704-4.949 5.09-.704 10.234-1.69 5.16-.987 9.546-2.114 1.409.14 2.325.493t2.325 1.057v12.857l.14.141q4.386-6.5 9.829-11.026t11.642-4.526q2.413 0 4.738.352 2.325.37 4.597 1.779.282 5.795-.493 11.008-.775 5.231-2.343 10.18-.986.141-3.1.071t-3.258-.634l-1.973-14.126q-4.949 0-9.951 3.593-5.02 3.61-9.124 13.21Zm37.728 12.293q0-11.026 4.297-19.639 4.315-8.612 12.365-13.562t18.934-4.949q11.008 0 18.987 4.95t12.294 13.561 4.315 19.639q0 11.29-4.315 19.903-4.316 8.63-12.294 13.421-7.98 4.808-18.987 4.808-10.885 0-18.934-4.808-8.05-4.79-12.365-13.421-4.297-8.613-4.297-19.903Zm55.939 1.973q0-9.459-2.131-17.155-2.114-7.715-6.64-12.294-4.51-4.597-11.854-4.597-7.486 0-11.942 4.526-4.456 4.51-6.288 11.995-1.831 7.503-1.831 16.538 0 8.19 2.113 15.324t6.71 11.448q4.598 4.298 11.801 4.298 7.627 0 11.995-4.227 4.386-4.245 6.217-11.167 1.85-6.922 1.85-14.69Zm36.019 71.333q-2.413-3.681-4.88-8.472-2.465-4.808-3.187-9.617.863-.704 2.483-1.338t2.889-.635l9.035 10.604q3.822-3.682 7.856-11.097 4.016-7.415 7.556-16.873l-25.715-64.13-10.885-2.835q-.423-2.677.722-4.932 3.804.141 8.26.423 4.439.282 8.402.282 4.086 0 8.824-.282t8.683-.423q.423 2.677-.281 4.932-2.537.564-5.003 1.127-2.483.581-4.738 1.709l11.73 28.392q.705 1.69 2.114 5.143 1.41 3.47 2.818 7.838 1.41 4.385 2.273 8.912h.422q.846-3.258 1.832-7.556.986-4.315 3.664-11.237l12.012-31.492-9.74-2.836q-.423-2.677.704-4.932 3.805.141 6.852.423 3.03.282 6.992.282 4.086 0 6.922-.282 2.818-.282 6.781-.423.423 2.677-.282 4.932-2.554.564-5.16 1.127-2.607.581-4.597 1.709l-27.688 70.188q-3.664 9.335-8.19 16.398-4.51 7.063-9.459 11.008-4.949 3.963-10.021 3.963Zm89.545-35.596q-8.472 0-14.267-4.456-5.795-4.439-5.795-13.492 0-7.063 3.47-11.572 3.452-4.526 9.317-6.992 5.866-2.484 13.07-3.33t14.689-.704l.14-12.417q.141-7.926-2.976-12.223-3.1-4.316-9.458-4.316-3.523 0-6.781.494-3.241.493-6.5 1.638l-1.831 14.97q-1.128.564-3.1.635-1.99.07-3.118-.07-1.268-4.668-2.113-9.336-.846-4.65-.705-9.035 6.64-3.1 13.35-4.368 6.711-1.286 14.62-1.286t12.77 2.554q4.878 2.536 7.203 8.754 2.343 6.217 2.343 17.366v37.868q2.395 1.128 4.931 1.62 2.554.494 4.95 1.198.422 2.678-.705 4.95-2.254.422-5.442.704-3.17.282-6.43.282-4.65 0-8.048-.845l-1.973-7.345h-.564q-3.54 3.664-8.753 6.217-5.232 2.537-12.294 2.537Zm5.372-7.768q3.945 0 8.472-2.483 4.526-2.466 6.64-5.566v-19.075q-14.549 0-20.484 3.47-5.936 3.452-5.936 12.065 0 5.795 3.118 8.683 3.1 2.906 8.19 2.906Zm67.088-99.866v98.175l10.885 2.819q.423 2.677-.705 4.949-3.822-.282-8.56-.493-4.72-.212-8.683-.212-3.945 0-8.613.212t-8.613.493q-.422-2.695.282-4.95 2.677-.704 5.284-1.268 2.625-.563 4.597-1.55v-89.844l-11.73-1.127q-.423-2.818.722-4.95 5.073-.704 10.233-1.69t9.529-2.114q1.427.141 2.695.493t2.677 1.057Zm32.919 67.088v2.836q0 14.267 5.706 22.104 5.725 7.838 15.623 7.838 4.368 0 7.345-.493 2.959-.493 5.848-1.92 2.906-1.409 6.57-3.945 2.271.986 2.553 3.382-4.386 5.09-10.462 7.926-6.077 2.818-12.276 2.818-10.744 0-18.794-4.527-8.049-4.509-12.575-12.998-4.51-8.472-4.51-20.185 0-12.012 4.721-20.414 4.738-8.401 12.717-12.857t17.718-4.456q12.576 0 18.582 8.419 6.006 8.401 6.006 21.682v1.831q0 .846-.14 1.832l-1.973 1.55Zm20.044-28.815q-4.087 0-8.12 2.554-4.016 2.536-7.133 7.627-3.1 5.072-4.228 12.84l30.788-1.691q0-10.868-2.325-16.099-2.342-5.23-8.982-5.23Z" font-family="Alike" font-size="80.197"/><path stroke="null" stroke-width="1.761" d="M503.041 832.016q-2.853 0-5.107-1.391-2.237-1.41-3.523-3.999-1.268-2.571-1.268-6.111 0-3.558 1.268-6.147 1.286-2.59 3.523-3.999 2.254-1.391 5.107-1.391 1.691 0 3.188.493t2.713 1.444q1.198.934 2.008 2.29.81 1.374 1.11 3.082h-2.713q-.247-1.162-.845-2.06-.6-.88-1.445-1.497t-1.867-.916q-1.021-.317-2.149-.317-2.025 0-3.68 1.039-1.656 1.021-2.625 3.047-.986 2.008-.986 4.932 0 2.906.986 4.914.969 1.99 2.624 3.03 1.656 1.02 3.681 1.02 1.128 0 2.15-.299 1.02-.317 1.866-.916.846-.616 1.445-1.497.598-.898.845-2.078h2.712q-.299 1.744-1.11 3.1t-2.007 2.29q-1.215.95-2.713 1.444t-3.188.493Zm23.197-14.284h-2.166l-.318-8.455h2.801Zm26.754 13.985H539.29v-22.44h13.545v2.413h-10.832v7.486h10.11v2.413h-10.11v7.715h10.99Zm18.688.387q-2.413 0-4.175-.775t-2.765-2.166-1.127-3.224h2.8q.124 1.251.863 2.079.74.845 1.903 1.25t2.5.405q1.55 0 2.801-.51 1.233-.511 1.955-1.445.722-.916.722-2.148 0-1.11-.634-1.815-.616-.686-1.638-1.127-1.021-.423-2.201-.757l-2.748-.793q-2.642-.757-4.174-2.149-1.515-1.409-1.515-3.698 0-1.867 1.004-3.276 1.022-1.41 2.765-2.202 1.744-.775 3.875-.775 2.167 0 3.857.775t2.678 2.096q1.004 1.339 1.056 3.03h-2.642q-.211-1.656-1.602-2.572-1.392-.934-3.435-.934-1.48 0-2.59.494-1.109.475-1.725 1.32-.634.846-.634 1.938 0 1.18.74 1.92.74.722 1.76 1.127t1.85.652l2.255.634q.88.246 1.955.651t2.078 1.093 1.638 1.778q.652 1.075.652 2.66 0 1.797-.951 3.276-.951 1.462-2.748 2.325-1.814.863-4.403.863Zm25.257-20.414h-7.08v-2.413h16.838v2.413h-7.046v20.027h-2.712Zm43.258 20.027h-5.39v-2.413h5.214q2.782 0 4.614-1.075 1.832-1.057 2.73-3.047.916-1.99.916-4.738 0-2.712-.898-4.667-.88-1.973-2.66-3.03-1.761-1.057-4.403-1.057h-5.636v-2.413h5.812q3.276 0 5.601 1.339t3.558 3.84q1.233 2.518 1.233 5.988 0 3.523-1.25 6.041t-3.629 3.875q-2.395 1.357-5.812 1.357Zm-6.922-22.44h2.712v22.44h-2.712Zm43.75 14.637v-14.637h2.713v14.848q0 2.308-1.074 4.104t-3.047 2.836q-1.955 1.039-4.58 1.039-2.642 0-4.614-1.04-1.955-1.038-3.047-2.835-1.075-1.796-1.075-4.104v-14.848h2.713v14.637q0 1.638.722 2.924t2.078 2.008q1.356.74 3.223.74t3.206-.74q1.338-.723 2.06-2.008t.723-2.924Zm43.681 7.803H707.53v-22.44h2.712v20.027h10.462Zm25.768-7.803v-14.637h2.713v14.848q0 2.308-1.075 4.104t-3.047 2.836q-1.955 1.039-4.58 1.039-2.641 0-4.614-1.04-1.955-1.038-3.047-2.835-1.074-1.796-1.074-4.104v-14.848h2.712v14.637q0 1.638.722 2.924t2.079 2.008q1.356.74 3.223.74t3.205-.74q1.339-.723 2.061-2.008t.722-2.924Zm13.122-14.637h3.188l5.777 9.335h.194l5.777-9.335h3.188l-7.045 11.238 7.045 11.202h-3.188l-5.777-9.16h-.194l-5.777 9.16h-3.188l7.221-11.202Zm42.219 22.44H788.11v-22.44h13.544v2.413h-10.832v7.486h10.11v2.413h-10.11v7.715h10.99Z" font-family="Inter Tight" font-size="17.514"/><path fill="#5a5a5a" stroke="none" d="m1224.924 724.444-29.556-1.534v-4.778h3.4v-10.218h-6.8v-2.964h17l7.36-7.324v-10.375l-7.36-7.34h-58.727l-7.358 7.34v10.34l7.358 7.359h17.019v2.947h-6.8v10.218h3.382v4.777l-29.556 1.535-7.201 5.806v102.704l7.254 5.859h90.532l7.254-5.859V730.251Zm-30.34-12.101v1.395h-8.057a7 7 0 0 0-.4-1.395Zm-14.98-4.394a6.98 6.98 0 0 0-5.178 2.302h-2.999v-5.301h16.356v5.283h-3a6.98 6.98 0 0 0-5.178-2.284m4.97 7.062a4.97 4.97 0 0 1-9.94-.018 4.97 4.97 0 0 1 9.94 0m-4.97 7.08a7.045 7.045 0 0 0 6.975-6.225h4.603v9.259h-23.156v-9.26h4.603c.419 3.488 3.365 6.226 6.975 6.226m28.283-37.315 2.336 2.336h-2.336Zm0 4.429h4.254v6.347h-4.307Zm-.053 8.457h2.546l-2.546 2.545Zm-56.495-12.904v2.354h-2.354Zm-4.272 4.447h4.272l.017 6.347h-4.307Zm4.306 10.985-2.545-2.528h2.545Zm2.04-16.077h52.381v3h-52.38Zm0 5.092h52.381l-.035 6.347h-52.31Zm.053 11.595v-3.138h52.293v3.138Zm11.16 11.561h8.456q-.261.68-.418 1.395h-8.056Zm-1.169 14.77v.086h32.294v-.07l26.364 1.343-1.813 3.07-14.037-.036a1.7 1.7 0 0 0-.523-.174h-52.294a1.7 1.7 0 0 0-.523.174l-14.036.035-1.814-3.069Zm-29.242 106.225-2.964-2.371v-96.95l2.964 1.831Zm-2.44-101.483 3.312-2.668 1.866 3.174-1.953 1.517Zm49.991 102.774h-37.629a124 124 0 0 1 18.972-4.639 129 129 0 0 1 16.495-1.325c5.144.087 10.636.47 16.495 1.325a124 124 0 0 1 18.972 4.639Zm41.151-.07a141 141 0 0 0-26.207-6.574 121 121 0 0 0-17.106-1.57 121 121 0 0 0-17.106 1.57c-8.16 1.22-16.931 3.313-26.19 6.574v-99.042l2.371-1.866 40.925-.14 40.925.123 2.37 1.848Zm1.29-100.681-1.935-1.517 1.866-3.174 3.313 2.685Zm3.732 46.556v50.533l-2.947 2.371v-97.507l2.965-1.831Z"/><path fill="#5a5a5a" stroke="none" d="M1152.438 748.368v46.295h54.351v-46.295Zm52.259 44.22h-50.201V750.46h50.218Z"/><path fill="transparent" stroke="transparent" stroke-width="1.828" d="M250 657.678h1000v184.644H250z"/></g></svg>